<?xml version="1.0" encoding="utf-8" standalone="no"?>
<!DOCTYPE svg PUBLIC "-//W3C//DTD SVG 1.1//EN"
  "http://www.w3.org/Graphics/SVG/1.1/DTD/svg11.dtd">
<svg height="1432.052812pt" version="1.1" viewBox="0 0 1432.603125 1432.052812" width="1432.603125pt" xmlns="http://www.w3.org/2000/svg" xmlns:xlink="http://www.w3.org/1999/xlink">
 <metadata>
  <rdf:RDF xmlns:cc="http://creativecommons.org/ns#" xmlns:dc="http://purl.org/dc/elements/1.1/" xmlns:rdf="http://www.w3.org/1999/02/22-rdf-syntax-ns#">
   <cc:Work>
    <dc:type rdf:resource="http://purl.org/dc/dcmitype/StillImage"/>
    <dc:date>2022-02-28T16:47:04.885032</dc:date>
    <dc:format>image/svg+xml</dc:format>
    <dc:creator>
     <cc:Agent>
      <dc:title>Matplotlib v3.4.3, https://matplotlib.org/</dc:title>
     </cc:Agent>
    </dc:creator>
   </cc:Work>
  </rdf:RDF>
 </metadata>
 <defs>
  <style type="text/css">*{stroke-linecap:butt;stroke-linejoin:round;}</style>
 </defs>
 <g id="figure_1">
  <g id="patch_1">
   <path d="M 0 1432.052812 
L 1432.603125 1432.052812 
L 1432.603125 0 
L 0 0 
z
" style="fill:#ffffff;"/>
  </g>
  <g id="axes_1">
   <g id="patch_2">
    <path d="M 190.79375 1297.715312 
L 1377.69375 1297.715312 
L 1377.69375 29.995312 
L 190.79375 29.995312 
z
" style="fill:#ffffff;"/>
   </g>
   <g id="matplotlib.axis_1">
    <g id="xtick_1">
     <g id="text_1">
      <!-- 0.0 -->
      <g style="fill:#ffffff;" transform="translate(143.084375 1350.305937)scale(0.6 -0.6)">
       <defs>
        <path d="M 2034 4250 
Q 1547 4250 1301 3770 
Q 1056 3291 1056 2328 
Q 1056 1369 1301 889 
Q 1547 409 2034 409 
Q 2525 409 2770 889 
Q 3016 1369 3016 2328 
Q 3016 3291 2770 3770 
Q 2525 4250 2034 4250 
z
M 2034 4750 
Q 2819 4750 3233 4129 
Q 3647 3509 3647 2328 
Q 3647 1150 3233 529 
Q 2819 -91 2034 -91 
Q 1250 -91 836 529 
Q 422 1150 422 2328 
Q 422 3509 836 4129 
Q 1250 4750 2034 4750 
z
" id="DejaVuSans-30" transform="scale(0.015625)"/>
        <path d="M 684 794 
L 1344 794 
L 1344 0 
L 684 0 
L 684 794 
z
" id="DejaVuSans-2e" transform="scale(0.015625)"/>
       </defs>
       <use xlink:href="#DejaVuSans-30"/>
       <use x="63.623047" xlink:href="#DejaVuSans-2e"/>
       <use x="95.410156" xlink:href="#DejaVuSans-30"/>
      </g>
     </g>
    </g>
    <g id="xtick_2">
     <g id="text_2">
      <!-- 0.2 -->
      <g style="fill:#ffffff;" transform="translate(380.464375 1350.305937)scale(0.6 -0.6)">
       <defs>
        <path d="M 1228 531 
L 3431 531 
L 3431 0 
L 469 0 
L 469 531 
Q 828 903 1448 1529 
Q 2069 2156 2228 2338 
Q 2531 2678 2651 2914 
Q 2772 3150 2772 3378 
Q 2772 3750 2511 3984 
Q 2250 4219 1831 4219 
Q 1534 4219 1204 4116 
Q 875 4013 500 3803 
L 500 4441 
Q 881 4594 1212 4672 
Q 1544 4750 1819 4750 
Q 2544 4750 2975 4387 
Q 3406 4025 3406 3419 
Q 3406 3131 3298 2873 
Q 3191 2616 2906 2266 
Q 2828 2175 2409 1742 
Q 1991 1309 1228 531 
z
" id="DejaVuSans-32" transform="scale(0.015625)"/>
       </defs>
       <use xlink:href="#DejaVuSans-30"/>
       <use x="63.623047" xlink:href="#DejaVuSans-2e"/>
       <use x="95.410156" xlink:href="#DejaVuSans-32"/>
      </g>
     </g>
    </g>
    <g id="xtick_3">
     <g id="text_3">
      <!-- 0.4 -->
      <g style="fill:#ffffff;" transform="translate(617.844375 1350.305937)scale(0.6 -0.6)">
       <defs>
        <path d="M 2419 4116 
L 825 1625 
L 2419 1625 
L 2419 4116 
z
M 2253 4666 
L 3047 4666 
L 3047 1625 
L 3713 1625 
L 3713 1100 
L 3047 1100 
L 3047 0 
L 2419 0 
L 2419 1100 
L 313 1100 
L 313 1709 
L 2253 4666 
z
" id="DejaVuSans-34" transform="scale(0.015625)"/>
       </defs>
       <use xlink:href="#DejaVuSans-30"/>
       <use x="63.623047" xlink:href="#DejaVuSans-2e"/>
       <use x="95.410156" xlink:href="#DejaVuSans-34"/>
      </g>
     </g>
    </g>
    <g id="xtick_4">
     <g id="text_4">
      <!-- 0.6 -->
      <g style="fill:#ffffff;" transform="translate(855.224375 1350.305937)scale(0.6 -0.6)">
       <defs>
        <path d="M 2113 2584 
Q 1688 2584 1439 2293 
Q 1191 2003 1191 1497 
Q 1191 994 1439 701 
Q 1688 409 2113 409 
Q 2538 409 2786 701 
Q 3034 994 3034 1497 
Q 3034 2003 2786 2293 
Q 2538 2584 2113 2584 
z
M 3366 4563 
L 3366 3988 
Q 3128 4100 2886 4159 
Q 2644 4219 2406 4219 
Q 1781 4219 1451 3797 
Q 1122 3375 1075 2522 
Q 1259 2794 1537 2939 
Q 1816 3084 2150 3084 
Q 2853 3084 3261 2657 
Q 3669 2231 3669 1497 
Q 3669 778 3244 343 
Q 2819 -91 2113 -91 
Q 1303 -91 875 529 
Q 447 1150 447 2328 
Q 447 3434 972 4092 
Q 1497 4750 2381 4750 
Q 2619 4750 2861 4703 
Q 3103 4656 3366 4563 
z
" id="DejaVuSans-36" transform="scale(0.015625)"/>
       </defs>
       <use xlink:href="#DejaVuSans-30"/>
       <use x="63.623047" xlink:href="#DejaVuSans-2e"/>
       <use x="95.410156" xlink:href="#DejaVuSans-36"/>
      </g>
     </g>
    </g>
    <g id="xtick_5">
     <g id="text_5">
      <!-- 0.8 -->
      <g style="fill:#ffffff;" transform="translate(1092.604375 1350.305937)scale(0.6 -0.6)">
       <defs>
        <path d="M 2034 2216 
Q 1584 2216 1326 1975 
Q 1069 1734 1069 1313 
Q 1069 891 1326 650 
Q 1584 409 2034 409 
Q 2484 409 2743 651 
Q 3003 894 3003 1313 
Q 3003 1734 2745 1975 
Q 2488 2216 2034 2216 
z
M 1403 2484 
Q 997 2584 770 2862 
Q 544 3141 544 3541 
Q 544 4100 942 4425 
Q 1341 4750 2034 4750 
Q 2731 4750 3128 4425 
Q 3525 4100 3525 3541 
Q 3525 3141 3298 2862 
Q 3072 2584 2669 2484 
Q 3125 2378 3379 2068 
Q 3634 1759 3634 1313 
Q 3634 634 3220 271 
Q 2806 -91 2034 -91 
Q 1263 -91 848 271 
Q 434 634 434 1313 
Q 434 1759 690 2068 
Q 947 2378 1403 2484 
z
M 1172 3481 
Q 1172 3119 1398 2916 
Q 1625 2713 2034 2713 
Q 2441 2713 2670 2916 
Q 2900 3119 2900 3481 
Q 2900 3844 2670 4047 
Q 2441 4250 2034 4250 
Q 1625 4250 1398 4047 
Q 1172 3844 1172 3481 
z
" id="DejaVuSans-38" transform="scale(0.015625)"/>
       </defs>
       <use xlink:href="#DejaVuSans-30"/>
       <use x="63.623047" xlink:href="#DejaVuSans-2e"/>
       <use x="95.410156" xlink:href="#DejaVuSans-38"/>
      </g>
     </g>
    </g>
    <g id="xtick_6">
     <g id="text_6">
      <!-- 1.0 -->
      <g style="fill:#ffffff;" transform="translate(1329.984375 1350.305937)scale(0.6 -0.6)">
       <defs>
        <path d="M 794 531 
L 1825 531 
L 1825 4091 
L 703 3866 
L 703 4441 
L 1819 4666 
L 2450 4666 
L 2450 531 
L 3481 531 
L 3481 0 
L 794 0 
L 794 531 
z
" id="DejaVuSans-31" transform="scale(0.015625)"/>
       </defs>
       <use xlink:href="#DejaVuSans-31"/>
       <use x="63.623047" xlink:href="#DejaVuSans-2e"/>
       <use x="95.410156" xlink:href="#DejaVuSans-30"/>
      </g>
     </g>
    </g>
    <g id="text_7">
     <!-- Average Range Length -->
     <g transform="translate(443.425 1412.374687)scale(0.6 -0.6)">
      <defs>
       <path d="M 2188 4044 
L 1331 1722 
L 3047 1722 
L 2188 4044 
z
M 1831 4666 
L 2547 4666 
L 4325 0 
L 3669 0 
L 3244 1197 
L 1141 1197 
L 716 0 
L 50 0 
L 1831 4666 
z
" id="DejaVuSans-41" transform="scale(0.015625)"/>
       <path d="M 191 3500 
L 800 3500 
L 1894 563 
L 2988 3500 
L 3597 3500 
L 2284 0 
L 1503 0 
L 191 3500 
z
" id="DejaVuSans-76" transform="scale(0.015625)"/>
       <path d="M 3597 1894 
L 3597 1613 
L 953 1613 
Q 991 1019 1311 708 
Q 1631 397 2203 397 
Q 2534 397 2845 478 
Q 3156 559 3463 722 
L 3463 178 
Q 3153 47 2828 -22 
Q 2503 -91 2169 -91 
Q 1331 -91 842 396 
Q 353 884 353 1716 
Q 353 2575 817 3079 
Q 1281 3584 2069 3584 
Q 2775 3584 3186 3129 
Q 3597 2675 3597 1894 
z
M 3022 2063 
Q 3016 2534 2758 2815 
Q 2500 3097 2075 3097 
Q 1594 3097 1305 2825 
Q 1016 2553 972 2059 
L 3022 2063 
z
" id="DejaVuSans-65" transform="scale(0.015625)"/>
       <path d="M 2631 2963 
Q 2534 3019 2420 3045 
Q 2306 3072 2169 3072 
Q 1681 3072 1420 2755 
Q 1159 2438 1159 1844 
L 1159 0 
L 581 0 
L 581 3500 
L 1159 3500 
L 1159 2956 
Q 1341 3275 1631 3429 
Q 1922 3584 2338 3584 
Q 2397 3584 2469 3576 
Q 2541 3569 2628 3553 
L 2631 2963 
z
" id="DejaVuSans-72" transform="scale(0.015625)"/>
       <path d="M 2194 1759 
Q 1497 1759 1228 1600 
Q 959 1441 959 1056 
Q 959 750 1161 570 
Q 1363 391 1709 391 
Q 2188 391 2477 730 
Q 2766 1069 2766 1631 
L 2766 1759 
L 2194 1759 
z
M 3341 1997 
L 3341 0 
L 2766 0 
L 2766 531 
Q 2569 213 2275 61 
Q 1981 -91 1556 -91 
Q 1019 -91 701 211 
Q 384 513 384 1019 
Q 384 1609 779 1909 
Q 1175 2209 1959 2209 
L 2766 2209 
L 2766 2266 
Q 2766 2663 2505 2880 
Q 2244 3097 1772 3097 
Q 1472 3097 1187 3025 
Q 903 2953 641 2809 
L 641 3341 
Q 956 3463 1253 3523 
Q 1550 3584 1831 3584 
Q 2591 3584 2966 3190 
Q 3341 2797 3341 1997 
z
" id="DejaVuSans-61" transform="scale(0.015625)"/>
       <path d="M 2906 1791 
Q 2906 2416 2648 2759 
Q 2391 3103 1925 3103 
Q 1463 3103 1205 2759 
Q 947 2416 947 1791 
Q 947 1169 1205 825 
Q 1463 481 1925 481 
Q 2391 481 2648 825 
Q 2906 1169 2906 1791 
z
M 3481 434 
Q 3481 -459 3084 -895 
Q 2688 -1331 1869 -1331 
Q 1566 -1331 1297 -1286 
Q 1028 -1241 775 -1147 
L 775 -588 
Q 1028 -725 1275 -790 
Q 1522 -856 1778 -856 
Q 2344 -856 2625 -561 
Q 2906 -266 2906 331 
L 2906 616 
Q 2728 306 2450 153 
Q 2172 0 1784 0 
Q 1141 0 747 490 
Q 353 981 353 1791 
Q 353 2603 747 3093 
Q 1141 3584 1784 3584 
Q 2172 3584 2450 3431 
Q 2728 3278 2906 2969 
L 2906 3500 
L 3481 3500 
L 3481 434 
z
" id="DejaVuSans-67" transform="scale(0.015625)"/>
       <path id="DejaVuSans-20" transform="scale(0.015625)"/>
       <path d="M 2841 2188 
Q 3044 2119 3236 1894 
Q 3428 1669 3622 1275 
L 4263 0 
L 3584 0 
L 2988 1197 
Q 2756 1666 2539 1819 
Q 2322 1972 1947 1972 
L 1259 1972 
L 1259 0 
L 628 0 
L 628 4666 
L 2053 4666 
Q 2853 4666 3247 4331 
Q 3641 3997 3641 3322 
Q 3641 2881 3436 2590 
Q 3231 2300 2841 2188 
z
M 1259 4147 
L 1259 2491 
L 2053 2491 
Q 2509 2491 2742 2702 
Q 2975 2913 2975 3322 
Q 2975 3731 2742 3939 
Q 2509 4147 2053 4147 
L 1259 4147 
z
" id="DejaVuSans-52" transform="scale(0.015625)"/>
       <path d="M 3513 2113 
L 3513 0 
L 2938 0 
L 2938 2094 
Q 2938 2591 2744 2837 
Q 2550 3084 2163 3084 
Q 1697 3084 1428 2787 
Q 1159 2491 1159 1978 
L 1159 0 
L 581 0 
L 581 3500 
L 1159 3500 
L 1159 2956 
Q 1366 3272 1645 3428 
Q 1925 3584 2291 3584 
Q 2894 3584 3203 3211 
Q 3513 2838 3513 2113 
z
" id="DejaVuSans-6e" transform="scale(0.015625)"/>
       <path d="M 628 4666 
L 1259 4666 
L 1259 531 
L 3531 531 
L 3531 0 
L 628 0 
L 628 4666 
z
" id="DejaVuSans-4c" transform="scale(0.015625)"/>
       <path d="M 1172 4494 
L 1172 3500 
L 2356 3500 
L 2356 3053 
L 1172 3053 
L 1172 1153 
Q 1172 725 1289 603 
Q 1406 481 1766 481 
L 2356 481 
L 2356 0 
L 1766 0 
Q 1100 0 847 248 
Q 594 497 594 1153 
L 594 3053 
L 172 3053 
L 172 3500 
L 594 3500 
L 594 4494 
L 1172 4494 
z
" id="DejaVuSans-74" transform="scale(0.015625)"/>
       <path d="M 3513 2113 
L 3513 0 
L 2938 0 
L 2938 2094 
Q 2938 2591 2744 2837 
Q 2550 3084 2163 3084 
Q 1697 3084 1428 2787 
Q 1159 2491 1159 1978 
L 1159 0 
L 581 0 
L 581 4863 
L 1159 4863 
L 1159 2956 
Q 1366 3272 1645 3428 
Q 1925 3584 2291 3584 
Q 2894 3584 3203 3211 
Q 3513 2838 3513 2113 
z
" id="DejaVuSans-68" transform="scale(0.015625)"/>
      </defs>
      <use xlink:href="#DejaVuSans-41"/>
      <use x="62.533203" xlink:href="#DejaVuSans-76"/>
      <use x="121.712891" xlink:href="#DejaVuSans-65"/>
      <use x="183.236328" xlink:href="#DejaVuSans-72"/>
      <use x="224.349609" xlink:href="#DejaVuSans-61"/>
      <use x="285.628906" xlink:href="#DejaVuSans-67"/>
      <use x="349.105469" xlink:href="#DejaVuSans-65"/>
      <use x="410.628906" xlink:href="#DejaVuSans-20"/>
      <use x="442.416016" xlink:href="#DejaVuSans-52"/>
      <use x="509.648438" xlink:href="#DejaVuSans-61"/>
      <use x="570.927734" xlink:href="#DejaVuSans-6e"/>
      <use x="634.306641" xlink:href="#DejaVuSans-67"/>
      <use x="697.783203" xlink:href="#DejaVuSans-65"/>
      <use x="759.306641" xlink:href="#DejaVuSans-20"/>
      <use x="791.09375" xlink:href="#DejaVuSans-4c"/>
      <use x="845.056641" xlink:href="#DejaVuSans-65"/>
      <use x="906.580078" xlink:href="#DejaVuSans-6e"/>
      <use x="969.958984" xlink:href="#DejaVuSans-67"/>
      <use x="1033.435547" xlink:href="#DejaVuSans-74"/>
      <use x="1072.644531" xlink:href="#DejaVuSans-68"/>
     </g>
    </g>
   </g>
   <g id="matplotlib.axis_2">
    <g id="ytick_1">
     <g id="text_8">
      <!-- 0.0 -->
      <g style="fill:#ffffff;" transform="translate(88.375 1320.510625)scale(0.6 -0.6)">
       <use xlink:href="#DejaVuSans-30"/>
       <use x="63.623047" xlink:href="#DejaVuSans-2e"/>
       <use x="95.410156" xlink:href="#DejaVuSans-30"/>
      </g>
     </g>
    </g>
    <g id="ytick_2">
     <g id="text_9">
      <!-- 0.2 -->
      <g style="fill:#ffffff;" transform="translate(88.375 1066.966625)scale(0.6 -0.6)">
       <use xlink:href="#DejaVuSans-30"/>
       <use x="63.623047" xlink:href="#DejaVuSans-2e"/>
       <use x="95.410156" xlink:href="#DejaVuSans-32"/>
      </g>
     </g>
    </g>
    <g id="ytick_3">
     <g id="text_10">
      <!-- 0.4 -->
      <g style="fill:#ffffff;" transform="translate(88.375 813.422625)scale(0.6 -0.6)">
       <use xlink:href="#DejaVuSans-30"/>
       <use x="63.623047" xlink:href="#DejaVuSans-2e"/>
       <use x="95.410156" xlink:href="#DejaVuSans-34"/>
      </g>
     </g>
    </g>
    <g id="ytick_4">
     <g id="text_11">
      <!-- 0.6 -->
      <g style="fill:#ffffff;" transform="translate(88.375 559.878625)scale(0.6 -0.6)">
       <use xlink:href="#DejaVuSans-30"/>
       <use x="63.623047" xlink:href="#DejaVuSans-2e"/>
       <use x="95.410156" xlink:href="#DejaVuSans-36"/>
      </g>
     </g>
    </g>
    <g id="ytick_5">
     <g id="text_12">
      <!-- 0.8 -->
      <g style="fill:#ffffff;" transform="translate(88.375 306.334625)scale(0.6 -0.6)">
       <use xlink:href="#DejaVuSans-30"/>
       <use x="63.623047" xlink:href="#DejaVuSans-2e"/>
       <use x="95.410156" xlink:href="#DejaVuSans-38"/>
      </g>
     </g>
    </g>
    <g id="ytick_6">
     <g id="text_13">
      <!-- 1.0 -->
      <g style="fill:#ffffff;" transform="translate(88.375 52.790625)scale(0.6 -0.6)">
       <use xlink:href="#DejaVuSans-31"/>
       <use x="63.623047" xlink:href="#DejaVuSans-2e"/>
       <use x="95.410156" xlink:href="#DejaVuSans-30"/>
      </g>
     </g>
    </g>
   </g>
   <g id="patch_3">
    <path d="M 190.79375 1297.715312 
L 190.79375 29.995312 
" style="fill:none;"/>
   </g>
   <g id="patch_4">
    <path d="M 1377.69375 1297.715312 
L 1377.69375 29.995312 
" style="fill:none;"/>
   </g>
   <g id="patch_5">
    <path d="M 190.79375 1297.715312 
L 1377.69375 1297.715312 
" style="fill:none;"/>
   </g>
   <g id="patch_6">
    <path d="M 190.79375 29.995312 
L 1377.69375 29.995312 
" style="fill:none;"/>
   </g>
  </g>
  <g id="axes_2">
   <g id="patch_7">
    <path d="M 190.79375 1297.715312 
L 1377.69375 1297.715312 
L 1377.69375 29.995312 
L 190.79375 29.995312 
z
" style="fill:#ffffff;"/>
   </g>
   <g id="matplotlib.axis_3">
    <g id="xtick_7">
     <g id="line2d_1">
      <defs>
       <path d="M 0 0 
L 0 3.5 
" id="m84053d2fa7" style="stroke:#000000;stroke-width:0.8;"/>
      </defs>
      <g>
       <use style="stroke:#000000;stroke-width:0.8;" x="235.023029" xlink:href="#m84053d2fa7" y="1297.715312"/>
      </g>
     </g>
     <g id="text_14">
      <!-- 0 -->
      <g transform="translate(215.935529 1350.305937)scale(0.6 -0.6)">
       <use xlink:href="#DejaVuSans-30"/>
      </g>
     </g>
    </g>
    <g id="xtick_8">
     <g id="line2d_2">
      <g>
       <use style="stroke:#000000;stroke-width:0.8;" x="478.041047" xlink:href="#m84053d2fa7" y="1297.715312"/>
      </g>
     </g>
     <g id="text_15">
      <!-- 100 -->
      <g transform="translate(420.778547 1350.305937)scale(0.6 -0.6)">
       <use xlink:href="#DejaVuSans-31"/>
       <use x="63.623047" xlink:href="#DejaVuSans-30"/>
       <use x="127.246094" xlink:href="#DejaVuSans-30"/>
      </g>
     </g>
    </g>
    <g id="xtick_9">
     <g id="line2d_3">
      <g>
       <use style="stroke:#000000;stroke-width:0.8;" x="721.059065" xlink:href="#m84053d2fa7" y="1297.715312"/>
      </g>
     </g>
     <g id="text_16">
      <!-- 200 -->
      <g transform="translate(663.796565 1350.305937)scale(0.6 -0.6)">
       <use xlink:href="#DejaVuSans-32"/>
       <use x="63.623047" xlink:href="#DejaVuSans-30"/>
       <use x="127.246094" xlink:href="#DejaVuSans-30"/>
      </g>
     </g>
    </g>
    <g id="xtick_10">
     <g id="line2d_4">
      <g>
       <use style="stroke:#000000;stroke-width:0.8;" x="964.077083" xlink:href="#m84053d2fa7" y="1297.715312"/>
      </g>
     </g>
     <g id="text_17">
      <!-- 300 -->
      <g transform="translate(906.814583 1350.305937)scale(0.6 -0.6)">
       <defs>
        <path d="M 2597 2516 
Q 3050 2419 3304 2112 
Q 3559 1806 3559 1356 
Q 3559 666 3084 287 
Q 2609 -91 1734 -91 
Q 1441 -91 1130 -33 
Q 819 25 488 141 
L 488 750 
Q 750 597 1062 519 
Q 1375 441 1716 441 
Q 2309 441 2620 675 
Q 2931 909 2931 1356 
Q 2931 1769 2642 2001 
Q 2353 2234 1838 2234 
L 1294 2234 
L 1294 2753 
L 1863 2753 
Q 2328 2753 2575 2939 
Q 2822 3125 2822 3475 
Q 2822 3834 2567 4026 
Q 2313 4219 1838 4219 
Q 1578 4219 1281 4162 
Q 984 4106 628 3988 
L 628 4550 
Q 988 4650 1302 4700 
Q 1616 4750 1894 4750 
Q 2613 4750 3031 4423 
Q 3450 4097 3450 3541 
Q 3450 3153 3228 2886 
Q 3006 2619 2597 2516 
z
" id="DejaVuSans-33" transform="scale(0.015625)"/>
       </defs>
       <use xlink:href="#DejaVuSans-33"/>
       <use x="63.623047" xlink:href="#DejaVuSans-30"/>
       <use x="127.246094" xlink:href="#DejaVuSans-30"/>
      </g>
     </g>
    </g>
    <g id="xtick_11">
     <g id="line2d_5">
      <g>
       <use style="stroke:#000000;stroke-width:0.8;" x="1207.095101" xlink:href="#m84053d2fa7" y="1297.715312"/>
      </g>
     </g>
     <g id="text_18">
      <!-- 400 -->
      <g transform="translate(1149.832601 1350.305937)scale(0.6 -0.6)">
       <use xlink:href="#DejaVuSans-34"/>
       <use x="63.623047" xlink:href="#DejaVuSans-30"/>
       <use x="127.246094" xlink:href="#DejaVuSans-30"/>
      </g>
     </g>
    </g>
   </g>
   <g id="matplotlib.axis_4">
    <g id="ytick_7">
     <g id="line2d_6">
      <defs>
       <path d="M 0 0 
L -3.5 0 
" id="m761bf86fc1" style="stroke:#000000;stroke-width:0.8;"/>
      </defs>
      <g>
       <use style="stroke:#000000;stroke-width:0.8;" x="190.79375" xlink:href="#m761bf86fc1" y="1256.055506"/>
      </g>
     </g>
     <g id="text_19">
      <!-- 50 -->
      <g transform="translate(107.44375 1278.850819)scale(0.6 -0.6)">
       <defs>
        <path d="M 691 4666 
L 3169 4666 
L 3169 4134 
L 1269 4134 
L 1269 2991 
Q 1406 3038 1543 3061 
Q 1681 3084 1819 3084 
Q 2600 3084 3056 2656 
Q 3513 2228 3513 1497 
Q 3513 744 3044 326 
Q 2575 -91 1722 -91 
Q 1428 -91 1123 -41 
Q 819 9 494 109 
L 494 744 
Q 775 591 1075 516 
Q 1375 441 1709 441 
Q 2250 441 2565 725 
Q 2881 1009 2881 1497 
Q 2881 1984 2565 2268 
Q 2250 2553 1709 2553 
Q 1456 2553 1204 2497 
Q 953 2441 691 2322 
L 691 4666 
z
" id="DejaVuSans-35" transform="scale(0.015625)"/>
       </defs>
       <use xlink:href="#DejaVuSans-35"/>
       <use x="63.623047" xlink:href="#DejaVuSans-30"/>
      </g>
     </g>
    </g>
    <g id="ytick_8">
     <g id="line2d_7">
      <g>
       <use style="stroke:#000000;stroke-width:0.8;" x="190.79375" xlink:href="#m761bf86fc1" y="1090.056109"/>
      </g>
     </g>
     <g id="text_20">
      <!-- 75 -->
      <g transform="translate(107.44375 1112.851421)scale(0.6 -0.6)">
       <defs>
        <path d="M 525 4666 
L 3525 4666 
L 3525 4397 
L 1831 0 
L 1172 0 
L 2766 4134 
L 525 4134 
L 525 4666 
z
" id="DejaVuSans-37" transform="scale(0.015625)"/>
       </defs>
       <use xlink:href="#DejaVuSans-37"/>
       <use x="63.623047" xlink:href="#DejaVuSans-35"/>
      </g>
     </g>
    </g>
    <g id="ytick_9">
     <g id="line2d_8">
      <g>
       <use style="stroke:#000000;stroke-width:0.8;" x="190.79375" xlink:href="#m761bf86fc1" y="924.056712"/>
      </g>
     </g>
     <g id="text_21">
      <!-- 100 -->
      <g transform="translate(69.26875 946.852024)scale(0.6 -0.6)">
       <use xlink:href="#DejaVuSans-31"/>
       <use x="63.623047" xlink:href="#DejaVuSans-30"/>
       <use x="127.246094" xlink:href="#DejaVuSans-30"/>
      </g>
     </g>
    </g>
    <g id="ytick_10">
     <g id="line2d_9">
      <g>
       <use style="stroke:#000000;stroke-width:0.8;" x="190.79375" xlink:href="#m761bf86fc1" y="758.057314"/>
      </g>
     </g>
     <g id="text_22">
      <!-- 125 -->
      <g transform="translate(69.26875 780.852627)scale(0.6 -0.6)">
       <use xlink:href="#DejaVuSans-31"/>
       <use x="63.623047" xlink:href="#DejaVuSans-32"/>
       <use x="127.246094" xlink:href="#DejaVuSans-35"/>
      </g>
     </g>
    </g>
    <g id="ytick_11">
     <g id="line2d_10">
      <g>
       <use style="stroke:#000000;stroke-width:0.8;" x="190.79375" xlink:href="#m761bf86fc1" y="592.057917"/>
      </g>
     </g>
     <g id="text_23">
      <!-- 150 -->
      <g transform="translate(69.26875 614.85323)scale(0.6 -0.6)">
       <use xlink:href="#DejaVuSans-31"/>
       <use x="63.623047" xlink:href="#DejaVuSans-35"/>
       <use x="127.246094" xlink:href="#DejaVuSans-30"/>
      </g>
     </g>
    </g>
    <g id="ytick_12">
     <g id="line2d_11">
      <g>
       <use style="stroke:#000000;stroke-width:0.8;" x="190.79375" xlink:href="#m761bf86fc1" y="426.05852"/>
      </g>
     </g>
     <g id="text_24">
      <!-- 175 -->
      <g transform="translate(69.26875 448.853832)scale(0.6 -0.6)">
       <use xlink:href="#DejaVuSans-31"/>
       <use x="63.623047" xlink:href="#DejaVuSans-37"/>
       <use x="127.246094" xlink:href="#DejaVuSans-35"/>
      </g>
     </g>
    </g>
    <g id="ytick_13">
     <g id="line2d_12">
      <g>
       <use style="stroke:#000000;stroke-width:0.8;" x="190.79375" xlink:href="#m761bf86fc1" y="260.059123"/>
      </g>
     </g>
     <g id="text_25">
      <!-- 200 -->
      <g transform="translate(69.26875 282.854435)scale(0.6 -0.6)">
       <use xlink:href="#DejaVuSans-32"/>
       <use x="63.623047" xlink:href="#DejaVuSans-30"/>
       <use x="127.246094" xlink:href="#DejaVuSans-30"/>
      </g>
     </g>
    </g>
    <g id="ytick_14">
     <g id="line2d_13">
      <g>
       <use style="stroke:#000000;stroke-width:0.8;" x="190.79375" xlink:href="#m761bf86fc1" y="94.059725"/>
      </g>
     </g>
     <g id="text_26">
      <!-- 225 -->
      <g transform="translate(69.26875 116.855038)scale(0.6 -0.6)">
       <use xlink:href="#DejaVuSans-32"/>
       <use x="63.623047" xlink:href="#DejaVuSans-32"/>
       <use x="127.246094" xlink:href="#DejaVuSans-35"/>
      </g>
     </g>
    </g>
    <g id="text_27">
     <!-- Operations Rate (MOp/s) -->
     <g transform="translate(52.790625 1034.317812)rotate(-90)scale(0.6 -0.6)">
      <defs>
       <path d="M 2522 4238 
Q 1834 4238 1429 3725 
Q 1025 3213 1025 2328 
Q 1025 1447 1429 934 
Q 1834 422 2522 422 
Q 3209 422 3611 934 
Q 4013 1447 4013 2328 
Q 4013 3213 3611 3725 
Q 3209 4238 2522 4238 
z
M 2522 4750 
Q 3503 4750 4090 4092 
Q 4678 3434 4678 2328 
Q 4678 1225 4090 567 
Q 3503 -91 2522 -91 
Q 1538 -91 948 565 
Q 359 1222 359 2328 
Q 359 3434 948 4092 
Q 1538 4750 2522 4750 
z
" id="DejaVuSans-4f" transform="scale(0.015625)"/>
       <path d="M 1159 525 
L 1159 -1331 
L 581 -1331 
L 581 3500 
L 1159 3500 
L 1159 2969 
Q 1341 3281 1617 3432 
Q 1894 3584 2278 3584 
Q 2916 3584 3314 3078 
Q 3713 2572 3713 1747 
Q 3713 922 3314 415 
Q 2916 -91 2278 -91 
Q 1894 -91 1617 61 
Q 1341 213 1159 525 
z
M 3116 1747 
Q 3116 2381 2855 2742 
Q 2594 3103 2138 3103 
Q 1681 3103 1420 2742 
Q 1159 2381 1159 1747 
Q 1159 1113 1420 752 
Q 1681 391 2138 391 
Q 2594 391 2855 752 
Q 3116 1113 3116 1747 
z
" id="DejaVuSans-70" transform="scale(0.015625)"/>
       <path d="M 603 3500 
L 1178 3500 
L 1178 0 
L 603 0 
L 603 3500 
z
M 603 4863 
L 1178 4863 
L 1178 4134 
L 603 4134 
L 603 4863 
z
" id="DejaVuSans-69" transform="scale(0.015625)"/>
       <path d="M 1959 3097 
Q 1497 3097 1228 2736 
Q 959 2375 959 1747 
Q 959 1119 1226 758 
Q 1494 397 1959 397 
Q 2419 397 2687 759 
Q 2956 1122 2956 1747 
Q 2956 2369 2687 2733 
Q 2419 3097 1959 3097 
z
M 1959 3584 
Q 2709 3584 3137 3096 
Q 3566 2609 3566 1747 
Q 3566 888 3137 398 
Q 2709 -91 1959 -91 
Q 1206 -91 779 398 
Q 353 888 353 1747 
Q 353 2609 779 3096 
Q 1206 3584 1959 3584 
z
" id="DejaVuSans-6f" transform="scale(0.015625)"/>
       <path d="M 2834 3397 
L 2834 2853 
Q 2591 2978 2328 3040 
Q 2066 3103 1784 3103 
Q 1356 3103 1142 2972 
Q 928 2841 928 2578 
Q 928 2378 1081 2264 
Q 1234 2150 1697 2047 
L 1894 2003 
Q 2506 1872 2764 1633 
Q 3022 1394 3022 966 
Q 3022 478 2636 193 
Q 2250 -91 1575 -91 
Q 1294 -91 989 -36 
Q 684 19 347 128 
L 347 722 
Q 666 556 975 473 
Q 1284 391 1588 391 
Q 1994 391 2212 530 
Q 2431 669 2431 922 
Q 2431 1156 2273 1281 
Q 2116 1406 1581 1522 
L 1381 1569 
Q 847 1681 609 1914 
Q 372 2147 372 2553 
Q 372 3047 722 3315 
Q 1072 3584 1716 3584 
Q 2034 3584 2315 3537 
Q 2597 3491 2834 3397 
z
" id="DejaVuSans-73" transform="scale(0.015625)"/>
       <path d="M 1984 4856 
Q 1566 4138 1362 3434 
Q 1159 2731 1159 2009 
Q 1159 1288 1364 580 
Q 1569 -128 1984 -844 
L 1484 -844 
Q 1016 -109 783 600 
Q 550 1309 550 2009 
Q 550 2706 781 3412 
Q 1013 4119 1484 4856 
L 1984 4856 
z
" id="DejaVuSans-28" transform="scale(0.015625)"/>
       <path d="M 628 4666 
L 1569 4666 
L 2759 1491 
L 3956 4666 
L 4897 4666 
L 4897 0 
L 4281 0 
L 4281 4097 
L 3078 897 
L 2444 897 
L 1241 4097 
L 1241 0 
L 628 0 
L 628 4666 
z
" id="DejaVuSans-4d" transform="scale(0.015625)"/>
       <path d="M 1625 4666 
L 2156 4666 
L 531 -594 
L 0 -594 
L 1625 4666 
z
" id="DejaVuSans-2f" transform="scale(0.015625)"/>
       <path d="M 513 4856 
L 1013 4856 
Q 1481 4119 1714 3412 
Q 1947 2706 1947 2009 
Q 1947 1309 1714 600 
Q 1481 -109 1013 -844 
L 513 -844 
Q 928 -128 1133 580 
Q 1338 1288 1338 2009 
Q 1338 2731 1133 3434 
Q 928 4138 513 4856 
z
" id="DejaVuSans-29" transform="scale(0.015625)"/>
      </defs>
      <use xlink:href="#DejaVuSans-4f"/>
      <use x="78.710938" xlink:href="#DejaVuSans-70"/>
      <use x="142.1875" xlink:href="#DejaVuSans-65"/>
      <use x="203.710938" xlink:href="#DejaVuSans-72"/>
      <use x="244.824219" xlink:href="#DejaVuSans-61"/>
      <use x="306.103516" xlink:href="#DejaVuSans-74"/>
      <use x="345.3125" xlink:href="#DejaVuSans-69"/>
      <use x="373.095703" xlink:href="#DejaVuSans-6f"/>
      <use x="434.277344" xlink:href="#DejaVuSans-6e"/>
      <use x="497.65625" xlink:href="#DejaVuSans-73"/>
      <use x="549.755859" xlink:href="#DejaVuSans-20"/>
      <use x="581.542969" xlink:href="#DejaVuSans-52"/>
      <use x="648.775391" xlink:href="#DejaVuSans-61"/>
      <use x="710.054688" xlink:href="#DejaVuSans-74"/>
      <use x="749.263672" xlink:href="#DejaVuSans-65"/>
      <use x="810.787109" xlink:href="#DejaVuSans-20"/>
      <use x="842.574219" xlink:href="#DejaVuSans-28"/>
      <use x="881.587891" xlink:href="#DejaVuSans-4d"/>
      <use x="967.867188" xlink:href="#DejaVuSans-4f"/>
      <use x="1046.578125" xlink:href="#DejaVuSans-70"/>
      <use x="1110.054688" xlink:href="#DejaVuSans-2f"/>
      <use x="1143.746094" xlink:href="#DejaVuSans-73"/>
      <use x="1195.845703" xlink:href="#DejaVuSans-29"/>
     </g>
    </g>
   </g>
   <g id="line2d_14">
    <path clip-path="url(#p0826659577)" d="M 244.74375 734.179961 
L 254.464471 747.214234 
L 264.185191 779.185718 
L 273.905912 769.331994 
L 283.626633 794.338143 
L 293.347354 816.017664 
L 303.068074 836.641429 
L 312.788795 866.72052 
L 322.509516 831.628247 
L 332.230236 847.796589 
L 341.950957 853.493688 
L 351.671678 854.781843 
L 361.392399 877.842479 
L 371.113119 871.939541 
L 380.83384 893.373383 
L 390.554561 900.989435 
L 400.275282 913.685069 
L 409.996002 902.41039 
L 419.716723 905.856538 
L 429.437444 913.034352 
L 439.158164 915.776662 
L 448.878885 941.073642 
L 458.599606 948.659814 
L 468.320327 935.292215 
L 478.041047 945.553634 
L 487.761768 946.60275 
L 497.482489 956.648369 
L 507.203209 959.23132 
L 516.92393 994.630359 
L 526.644651 972.818039 
L 536.365372 986.955875 
L 546.086092 976.350506 
L 555.806813 969.377203 
L 565.527534 1012.702382 
L 575.248255 975.703108 
L 584.968975 995.629676 
L 594.689696 981.125312 
L 604.410417 998.191378 
L 614.131137 991.200148 
L 623.851858 999.150855 
L 633.572579 1005.54648 
L 643.2933 1002.092364 
L 653.01402 1001.063168 
L 662.734741 1004.209189 
L 672.455462 1044.01518 
L 682.176182 1016.95927 
L 691.896903 1013.307284 
L 701.617624 1019.546869 
L 711.338345 1035.573115 
L 721.059065 1021.53023 
L 730.779786 1024.793114 
L 740.500507 1041.128119 
L 750.221227 1031.535345 
L 759.941948 1042.733665 
L 769.662669 1035.90777 
L 779.38339 1039.807427 
L 789.10411 1046.607427 
L 798.824831 1051.012387 
L 808.545552 1080.849782 
L 818.266273 1059.094565 
L 827.986993 1065.269743 
L 837.707714 1075.39637 
L 847.428435 1080.191097 
L 857.149155 1090.777874 
L 866.869876 1087.509678 
L 876.590597 1090.451851 
L 886.311318 1092.606524 
L 896.032038 1102.253081 
L 905.752759 1104.448921 
L 915.47348 1106.657377 
L 925.1942 1115.12401 
L 934.914921 1124.097937 
L 944.635642 1117.050931 
L 954.356363 1121.333051 
L 964.077083 1131.107096 
L 973.797804 1128.414586 
L 983.518525 1132.454347 
L 993.239245 1146.976638 
L 1002.959966 1142.780173 
L 1012.680687 1144.205112 
L 1022.401408 1157.636456 
L 1032.122128 1164.869381 
L 1041.842849 1161.325626 
L 1051.56357 1163.271803 
L 1061.284291 1161.145683 
L 1071.005011 1164.520783 
L 1080.725732 1172.387162 
L 1090.446453 1170.497425 
L 1100.167173 1173.712501 
L 1109.887894 1184.37431 
L 1119.608615 1181.170522 
L 1129.329336 1186.297247 
L 1139.050056 1189.489084 
L 1148.770777 1189.788547 
L 1158.491498 1192.309746 
L 1168.212218 1202.365325 
L 1177.932939 1197.733278 
L 1187.65366 1204.452934 
L 1197.374381 1202.672092 
L 1207.095101 1205.176027 
L 1216.815822 1207.462835 
L 1226.536543 1217.05096 
L 1236.257264 1212.683184 
L 1245.977984 1215.373038 
L 1255.698705 1218.420123 
L 1265.419426 1225.463809 
L 1275.140146 1233.877987 
L 1284.860867 1229.72269 
L 1294.581588 1228.613814 
L 1304.302309 1233.317573 
L 1314.023029 1232.751183 
L 1323.74375 1240.091676 
" style="fill:none;stroke:#1b9e77;stroke-linecap:square;stroke-width:4;"/>
    <defs>
     <path d="M -3 3 
L 3 3 
L 3 -3 
L -3 -3 
z
" id="m2b59ca91d8" style="stroke:#1b9e77;stroke-linejoin:miter;"/>
    </defs>
    <g clip-path="url(#p0826659577)">
     <use style="fill:#1b9e77;stroke:#1b9e77;stroke-linejoin:miter;" x="244.74375" xlink:href="#m2b59ca91d8" y="734.179961"/>
     <use style="fill:#1b9e77;stroke:#1b9e77;stroke-linejoin:miter;" x="254.464471" xlink:href="#m2b59ca91d8" y="747.214234"/>
     <use style="fill:#1b9e77;stroke:#1b9e77;stroke-linejoin:miter;" x="264.185191" xlink:href="#m2b59ca91d8" y="779.185718"/>
     <use style="fill:#1b9e77;stroke:#1b9e77;stroke-linejoin:miter;" x="273.905912" xlink:href="#m2b59ca91d8" y="769.331994"/>
     <use style="fill:#1b9e77;stroke:#1b9e77;stroke-linejoin:miter;" x="283.626633" xlink:href="#m2b59ca91d8" y="794.338143"/>
     <use style="fill:#1b9e77;stroke:#1b9e77;stroke-linejoin:miter;" x="293.347354" xlink:href="#m2b59ca91d8" y="816.017664"/>
     <use style="fill:#1b9e77;stroke:#1b9e77;stroke-linejoin:miter;" x="303.068074" xlink:href="#m2b59ca91d8" y="836.641429"/>
     <use style="fill:#1b9e77;stroke:#1b9e77;stroke-linejoin:miter;" x="312.788795" xlink:href="#m2b59ca91d8" y="866.72052"/>
     <use style="fill:#1b9e77;stroke:#1b9e77;stroke-linejoin:miter;" x="322.509516" xlink:href="#m2b59ca91d8" y="831.628247"/>
     <use style="fill:#1b9e77;stroke:#1b9e77;stroke-linejoin:miter;" x="332.230236" xlink:href="#m2b59ca91d8" y="847.796589"/>
     <use style="fill:#1b9e77;stroke:#1b9e77;stroke-linejoin:miter;" x="341.950957" xlink:href="#m2b59ca91d8" y="853.493688"/>
     <use style="fill:#1b9e77;stroke:#1b9e77;stroke-linejoin:miter;" x="351.671678" xlink:href="#m2b59ca91d8" y="854.781843"/>
     <use style="fill:#1b9e77;stroke:#1b9e77;stroke-linejoin:miter;" x="361.392399" xlink:href="#m2b59ca91d8" y="877.842479"/>
     <use style="fill:#1b9e77;stroke:#1b9e77;stroke-linejoin:miter;" x="371.113119" xlink:href="#m2b59ca91d8" y="871.939541"/>
     <use style="fill:#1b9e77;stroke:#1b9e77;stroke-linejoin:miter;" x="380.83384" xlink:href="#m2b59ca91d8" y="893.373383"/>
     <use style="fill:#1b9e77;stroke:#1b9e77;stroke-linejoin:miter;" x="390.554561" xlink:href="#m2b59ca91d8" y="900.989435"/>
     <use style="fill:#1b9e77;stroke:#1b9e77;stroke-linejoin:miter;" x="400.275282" xlink:href="#m2b59ca91d8" y="913.685069"/>
     <use style="fill:#1b9e77;stroke:#1b9e77;stroke-linejoin:miter;" x="409.996002" xlink:href="#m2b59ca91d8" y="902.41039"/>
     <use style="fill:#1b9e77;stroke:#1b9e77;stroke-linejoin:miter;" x="419.716723" xlink:href="#m2b59ca91d8" y="905.856538"/>
     <use style="fill:#1b9e77;stroke:#1b9e77;stroke-linejoin:miter;" x="429.437444" xlink:href="#m2b59ca91d8" y="913.034352"/>
     <use style="fill:#1b9e77;stroke:#1b9e77;stroke-linejoin:miter;" x="439.158164" xlink:href="#m2b59ca91d8" y="915.776662"/>
     <use style="fill:#1b9e77;stroke:#1b9e77;stroke-linejoin:miter;" x="448.878885" xlink:href="#m2b59ca91d8" y="941.073642"/>
     <use style="fill:#1b9e77;stroke:#1b9e77;stroke-linejoin:miter;" x="458.599606" xlink:href="#m2b59ca91d8" y="948.659814"/>
     <use style="fill:#1b9e77;stroke:#1b9e77;stroke-linejoin:miter;" x="468.320327" xlink:href="#m2b59ca91d8" y="935.292215"/>
     <use style="fill:#1b9e77;stroke:#1b9e77;stroke-linejoin:miter;" x="478.041047" xlink:href="#m2b59ca91d8" y="945.553634"/>
     <use style="fill:#1b9e77;stroke:#1b9e77;stroke-linejoin:miter;" x="487.761768" xlink:href="#m2b59ca91d8" y="946.60275"/>
     <use style="fill:#1b9e77;stroke:#1b9e77;stroke-linejoin:miter;" x="497.482489" xlink:href="#m2b59ca91d8" y="956.648369"/>
     <use style="fill:#1b9e77;stroke:#1b9e77;stroke-linejoin:miter;" x="507.203209" xlink:href="#m2b59ca91d8" y="959.23132"/>
     <use style="fill:#1b9e77;stroke:#1b9e77;stroke-linejoin:miter;" x="516.92393" xlink:href="#m2b59ca91d8" y="994.630359"/>
     <use style="fill:#1b9e77;stroke:#1b9e77;stroke-linejoin:miter;" x="526.644651" xlink:href="#m2b59ca91d8" y="972.818039"/>
     <use style="fill:#1b9e77;stroke:#1b9e77;stroke-linejoin:miter;" x="536.365372" xlink:href="#m2b59ca91d8" y="986.955875"/>
     <use style="fill:#1b9e77;stroke:#1b9e77;stroke-linejoin:miter;" x="546.086092" xlink:href="#m2b59ca91d8" y="976.350506"/>
     <use style="fill:#1b9e77;stroke:#1b9e77;stroke-linejoin:miter;" x="555.806813" xlink:href="#m2b59ca91d8" y="969.377203"/>
     <use style="fill:#1b9e77;stroke:#1b9e77;stroke-linejoin:miter;" x="565.527534" xlink:href="#m2b59ca91d8" y="1012.702382"/>
     <use style="fill:#1b9e77;stroke:#1b9e77;stroke-linejoin:miter;" x="575.248255" xlink:href="#m2b59ca91d8" y="975.703108"/>
     <use style="fill:#1b9e77;stroke:#1b9e77;stroke-linejoin:miter;" x="584.968975" xlink:href="#m2b59ca91d8" y="995.629676"/>
     <use style="fill:#1b9e77;stroke:#1b9e77;stroke-linejoin:miter;" x="594.689696" xlink:href="#m2b59ca91d8" y="981.125312"/>
     <use style="fill:#1b9e77;stroke:#1b9e77;stroke-linejoin:miter;" x="604.410417" xlink:href="#m2b59ca91d8" y="998.191378"/>
     <use style="fill:#1b9e77;stroke:#1b9e77;stroke-linejoin:miter;" x="614.131137" xlink:href="#m2b59ca91d8" y="991.200148"/>
     <use style="fill:#1b9e77;stroke:#1b9e77;stroke-linejoin:miter;" x="623.851858" xlink:href="#m2b59ca91d8" y="999.150855"/>
     <use style="fill:#1b9e77;stroke:#1b9e77;stroke-linejoin:miter;" x="633.572579" xlink:href="#m2b59ca91d8" y="1005.54648"/>
     <use style="fill:#1b9e77;stroke:#1b9e77;stroke-linejoin:miter;" x="643.2933" xlink:href="#m2b59ca91d8" y="1002.092364"/>
     <use style="fill:#1b9e77;stroke:#1b9e77;stroke-linejoin:miter;" x="653.01402" xlink:href="#m2b59ca91d8" y="1001.063168"/>
     <use style="fill:#1b9e77;stroke:#1b9e77;stroke-linejoin:miter;" x="662.734741" xlink:href="#m2b59ca91d8" y="1004.209189"/>
     <use style="fill:#1b9e77;stroke:#1b9e77;stroke-linejoin:miter;" x="672.455462" xlink:href="#m2b59ca91d8" y="1044.01518"/>
     <use style="fill:#1b9e77;stroke:#1b9e77;stroke-linejoin:miter;" x="682.176182" xlink:href="#m2b59ca91d8" y="1016.95927"/>
     <use style="fill:#1b9e77;stroke:#1b9e77;stroke-linejoin:miter;" x="691.896903" xlink:href="#m2b59ca91d8" y="1013.307284"/>
     <use style="fill:#1b9e77;stroke:#1b9e77;stroke-linejoin:miter;" x="701.617624" xlink:href="#m2b59ca91d8" y="1019.546869"/>
     <use style="fill:#1b9e77;stroke:#1b9e77;stroke-linejoin:miter;" x="711.338345" xlink:href="#m2b59ca91d8" y="1035.573115"/>
     <use style="fill:#1b9e77;stroke:#1b9e77;stroke-linejoin:miter;" x="721.059065" xlink:href="#m2b59ca91d8" y="1021.53023"/>
     <use style="fill:#1b9e77;stroke:#1b9e77;stroke-linejoin:miter;" x="730.779786" xlink:href="#m2b59ca91d8" y="1024.793114"/>
     <use style="fill:#1b9e77;stroke:#1b9e77;stroke-linejoin:miter;" x="740.500507" xlink:href="#m2b59ca91d8" y="1041.128119"/>
     <use style="fill:#1b9e77;stroke:#1b9e77;stroke-linejoin:miter;" x="750.221227" xlink:href="#m2b59ca91d8" y="1031.535345"/>
     <use style="fill:#1b9e77;stroke:#1b9e77;stroke-linejoin:miter;" x="759.941948" xlink:href="#m2b59ca91d8" y="1042.733665"/>
     <use style="fill:#1b9e77;stroke:#1b9e77;stroke-linejoin:miter;" x="769.662669" xlink:href="#m2b59ca91d8" y="1035.90777"/>
     <use style="fill:#1b9e77;stroke:#1b9e77;stroke-linejoin:miter;" x="779.38339" xlink:href="#m2b59ca91d8" y="1039.807427"/>
     <use style="fill:#1b9e77;stroke:#1b9e77;stroke-linejoin:miter;" x="789.10411" xlink:href="#m2b59ca91d8" y="1046.607427"/>
     <use style="fill:#1b9e77;stroke:#1b9e77;stroke-linejoin:miter;" x="798.824831" xlink:href="#m2b59ca91d8" y="1051.012387"/>
     <use style="fill:#1b9e77;stroke:#1b9e77;stroke-linejoin:miter;" x="808.545552" xlink:href="#m2b59ca91d8" y="1080.849782"/>
     <use style="fill:#1b9e77;stroke:#1b9e77;stroke-linejoin:miter;" x="818.266273" xlink:href="#m2b59ca91d8" y="1059.094565"/>
     <use style="fill:#1b9e77;stroke:#1b9e77;stroke-linejoin:miter;" x="827.986993" xlink:href="#m2b59ca91d8" y="1065.269743"/>
     <use style="fill:#1b9e77;stroke:#1b9e77;stroke-linejoin:miter;" x="837.707714" xlink:href="#m2b59ca91d8" y="1075.39637"/>
     <use style="fill:#1b9e77;stroke:#1b9e77;stroke-linejoin:miter;" x="847.428435" xlink:href="#m2b59ca91d8" y="1080.191097"/>
     <use style="fill:#1b9e77;stroke:#1b9e77;stroke-linejoin:miter;" x="857.149155" xlink:href="#m2b59ca91d8" y="1090.777874"/>
     <use style="fill:#1b9e77;stroke:#1b9e77;stroke-linejoin:miter;" x="866.869876" xlink:href="#m2b59ca91d8" y="1087.509678"/>
     <use style="fill:#1b9e77;stroke:#1b9e77;stroke-linejoin:miter;" x="876.590597" xlink:href="#m2b59ca91d8" y="1090.451851"/>
     <use style="fill:#1b9e77;stroke:#1b9e77;stroke-linejoin:miter;" x="886.311318" xlink:href="#m2b59ca91d8" y="1092.606524"/>
     <use style="fill:#1b9e77;stroke:#1b9e77;stroke-linejoin:miter;" x="896.032038" xlink:href="#m2b59ca91d8" y="1102.253081"/>
     <use style="fill:#1b9e77;stroke:#1b9e77;stroke-linejoin:miter;" x="905.752759" xlink:href="#m2b59ca91d8" y="1104.448921"/>
     <use style="fill:#1b9e77;stroke:#1b9e77;stroke-linejoin:miter;" x="915.47348" xlink:href="#m2b59ca91d8" y="1106.657377"/>
     <use style="fill:#1b9e77;stroke:#1b9e77;stroke-linejoin:miter;" x="925.1942" xlink:href="#m2b59ca91d8" y="1115.12401"/>
     <use style="fill:#1b9e77;stroke:#1b9e77;stroke-linejoin:miter;" x="934.914921" xlink:href="#m2b59ca91d8" y="1124.097937"/>
     <use style="fill:#1b9e77;stroke:#1b9e77;stroke-linejoin:miter;" x="944.635642" xlink:href="#m2b59ca91d8" y="1117.050931"/>
     <use style="fill:#1b9e77;stroke:#1b9e77;stroke-linejoin:miter;" x="954.356363" xlink:href="#m2b59ca91d8" y="1121.333051"/>
     <use style="fill:#1b9e77;stroke:#1b9e77;stroke-linejoin:miter;" x="964.077083" xlink:href="#m2b59ca91d8" y="1131.107096"/>
     <use style="fill:#1b9e77;stroke:#1b9e77;stroke-linejoin:miter;" x="973.797804" xlink:href="#m2b59ca91d8" y="1128.414586"/>
     <use style="fill:#1b9e77;stroke:#1b9e77;stroke-linejoin:miter;" x="983.518525" xlink:href="#m2b59ca91d8" y="1132.454347"/>
     <use style="fill:#1b9e77;stroke:#1b9e77;stroke-linejoin:miter;" x="993.239245" xlink:href="#m2b59ca91d8" y="1146.976638"/>
     <use style="fill:#1b9e77;stroke:#1b9e77;stroke-linejoin:miter;" x="1002.959966" xlink:href="#m2b59ca91d8" y="1142.780173"/>
     <use style="fill:#1b9e77;stroke:#1b9e77;stroke-linejoin:miter;" x="1012.680687" xlink:href="#m2b59ca91d8" y="1144.205112"/>
     <use style="fill:#1b9e77;stroke:#1b9e77;stroke-linejoin:miter;" x="1022.401408" xlink:href="#m2b59ca91d8" y="1157.636456"/>
     <use style="fill:#1b9e77;stroke:#1b9e77;stroke-linejoin:miter;" x="1032.122128" xlink:href="#m2b59ca91d8" y="1164.869381"/>
     <use style="fill:#1b9e77;stroke:#1b9e77;stroke-linejoin:miter;" x="1041.842849" xlink:href="#m2b59ca91d8" y="1161.325626"/>
     <use style="fill:#1b9e77;stroke:#1b9e77;stroke-linejoin:miter;" x="1051.56357" xlink:href="#m2b59ca91d8" y="1163.271803"/>
     <use style="fill:#1b9e77;stroke:#1b9e77;stroke-linejoin:miter;" x="1061.284291" xlink:href="#m2b59ca91d8" y="1161.145683"/>
     <use style="fill:#1b9e77;stroke:#1b9e77;stroke-linejoin:miter;" x="1071.005011" xlink:href="#m2b59ca91d8" y="1164.520783"/>
     <use style="fill:#1b9e77;stroke:#1b9e77;stroke-linejoin:miter;" x="1080.725732" xlink:href="#m2b59ca91d8" y="1172.387162"/>
     <use style="fill:#1b9e77;stroke:#1b9e77;stroke-linejoin:miter;" x="1090.446453" xlink:href="#m2b59ca91d8" y="1170.497425"/>
     <use style="fill:#1b9e77;stroke:#1b9e77;stroke-linejoin:miter;" x="1100.167173" xlink:href="#m2b59ca91d8" y="1173.712501"/>
     <use style="fill:#1b9e77;stroke:#1b9e77;stroke-linejoin:miter;" x="1109.887894" xlink:href="#m2b59ca91d8" y="1184.37431"/>
     <use style="fill:#1b9e77;stroke:#1b9e77;stroke-linejoin:miter;" x="1119.608615" xlink:href="#m2b59ca91d8" y="1181.170522"/>
     <use style="fill:#1b9e77;stroke:#1b9e77;stroke-linejoin:miter;" x="1129.329336" xlink:href="#m2b59ca91d8" y="1186.297247"/>
     <use style="fill:#1b9e77;stroke:#1b9e77;stroke-linejoin:miter;" x="1139.050056" xlink:href="#m2b59ca91d8" y="1189.489084"/>
     <use style="fill:#1b9e77;stroke:#1b9e77;stroke-linejoin:miter;" x="1148.770777" xlink:href="#m2b59ca91d8" y="1189.788547"/>
     <use style="fill:#1b9e77;stroke:#1b9e77;stroke-linejoin:miter;" x="1158.491498" xlink:href="#m2b59ca91d8" y="1192.309746"/>
     <use style="fill:#1b9e77;stroke:#1b9e77;stroke-linejoin:miter;" x="1168.212218" xlink:href="#m2b59ca91d8" y="1202.365325"/>
     <use style="fill:#1b9e77;stroke:#1b9e77;stroke-linejoin:miter;" x="1177.932939" xlink:href="#m2b59ca91d8" y="1197.733278"/>
     <use style="fill:#1b9e77;stroke:#1b9e77;stroke-linejoin:miter;" x="1187.65366" xlink:href="#m2b59ca91d8" y="1204.452934"/>
     <use style="fill:#1b9e77;stroke:#1b9e77;stroke-linejoin:miter;" x="1197.374381" xlink:href="#m2b59ca91d8" y="1202.672092"/>
     <use style="fill:#1b9e77;stroke:#1b9e77;stroke-linejoin:miter;" x="1207.095101" xlink:href="#m2b59ca91d8" y="1205.176027"/>
     <use style="fill:#1b9e77;stroke:#1b9e77;stroke-linejoin:miter;" x="1216.815822" xlink:href="#m2b59ca91d8" y="1207.462835"/>
     <use style="fill:#1b9e77;stroke:#1b9e77;stroke-linejoin:miter;" x="1226.536543" xlink:href="#m2b59ca91d8" y="1217.05096"/>
     <use style="fill:#1b9e77;stroke:#1b9e77;stroke-linejoin:miter;" x="1236.257264" xlink:href="#m2b59ca91d8" y="1212.683184"/>
     <use style="fill:#1b9e77;stroke:#1b9e77;stroke-linejoin:miter;" x="1245.977984" xlink:href="#m2b59ca91d8" y="1215.373038"/>
     <use style="fill:#1b9e77;stroke:#1b9e77;stroke-linejoin:miter;" x="1255.698705" xlink:href="#m2b59ca91d8" y="1218.420123"/>
     <use style="fill:#1b9e77;stroke:#1b9e77;stroke-linejoin:miter;" x="1265.419426" xlink:href="#m2b59ca91d8" y="1225.463809"/>
     <use style="fill:#1b9e77;stroke:#1b9e77;stroke-linejoin:miter;" x="1275.140146" xlink:href="#m2b59ca91d8" y="1233.877987"/>
     <use style="fill:#1b9e77;stroke:#1b9e77;stroke-linejoin:miter;" x="1284.860867" xlink:href="#m2b59ca91d8" y="1229.72269"/>
     <use style="fill:#1b9e77;stroke:#1b9e77;stroke-linejoin:miter;" x="1294.581588" xlink:href="#m2b59ca91d8" y="1228.613814"/>
     <use style="fill:#1b9e77;stroke:#1b9e77;stroke-linejoin:miter;" x="1304.302309" xlink:href="#m2b59ca91d8" y="1233.317573"/>
     <use style="fill:#1b9e77;stroke:#1b9e77;stroke-linejoin:miter;" x="1314.023029" xlink:href="#m2b59ca91d8" y="1232.751183"/>
     <use style="fill:#1b9e77;stroke:#1b9e77;stroke-linejoin:miter;" x="1323.74375" xlink:href="#m2b59ca91d8" y="1240.091676"/>
    </g>
   </g>
   <g id="line2d_15">
    <path clip-path="url(#p0826659577)" d="M 244.74375 177.265263 
L 254.464471 236.447368 
L 264.185191 87.618949 
L 273.905912 147.577931 
L 283.626633 200.564939 
L 293.347354 134.22494 
L 303.068074 243.904061 
L 312.788795 237.549604 
L 322.509516 157.498055 
L 332.230236 168.759454 
L 341.950957 220.425107 
L 351.671678 237.018406 
L 361.392399 211.786498 
L 371.113119 223.665415 
L 380.83384 249.408601 
L 390.554561 263.704469 
L 400.275282 288.664139 
L 409.996002 408.064185 
L 419.716723 372.420795 
L 429.437444 298.106185 
L 439.158164 313.14573 
L 448.878885 310.669019 
L 458.599606 395.81343 
L 468.320327 359.320122 
L 478.041047 335.768128 
L 487.761768 394.764314 
L 497.482489 384.120432 
L 507.203209 404.724277 
L 516.92393 480.273923 
L 526.644651 445.22149 
L 536.365372 517.05275 
L 546.086092 559.229876 
L 555.806813 533.57965 
L 565.527534 540.246185 
L 575.248255 605.862427 
L 584.968975 583.166989 
L 594.689696 613.37888 
L 604.410417 627.595068 
L 614.131137 640.80198 
L 623.851858 653.497614 
L 633.572579 697.872573 
L 643.2933 687.009572 
L 653.01402 699.605607 
L 662.734741 727.320866 
L 672.455462 731.84933 
L 682.176182 743.190408 
L 691.896903 767.857919 
L 701.617624 768.913675 
L 711.338345 772.034464 
L 721.059065 811.622 
L 730.779786 797.565171 
L 740.500507 835.021275 
L 750.221227 813.766712 
L 759.941948 849.031624 
L 769.662669 831.674727 
L 779.38339 841.481972 
L 789.10411 858.274471 
L 798.824831 857.397994 
L 808.545552 872.543779 
L 818.266273 872.344579 
L 827.986993 880.604709 
L 837.707714 926.083232 
L 847.428435 892.815625 
L 857.149155 908.406289 
L 866.869876 936.53389 
L 876.590597 926.172872 
L 886.311318 936.238411 
L 896.032038 948.73219 
L 905.752759 933.7783 
L 915.47348 939.703815 
L 925.1942 951.276629 
L 934.914921 954.101939 
L 944.635642 955.267918 
L 954.356363 968.50139 
L 964.077083 966.732501 
L 973.797804 972.094945 
L 983.518525 976.048387 
L 993.239245 1003.209208 
L 1002.959966 986.19427 
L 1012.680687 1001.059184 
L 1022.401408 1013.779386 
L 1032.122128 1000.650826 
L 1041.842849 1005.677951 
L 1051.56357 1028.445765 
L 1061.284291 1013.082188 
L 1071.005011 1023.960461 
L 1080.725732 1034.387879 
L 1090.446453 1025.731342 
L 1100.167173 1049.210297 
L 1109.887894 1057.603227 
L 1119.608615 1038.59032 
L 1129.329336 1049.374305 
L 1139.050056 1046.395611 
L 1148.770777 1050.022366 
L 1158.491498 1057.165652 
L 1168.212218 1056.68027 
L 1177.932939 1061.236622 
L 1187.65366 1073.146746 
L 1197.374381 1079.358444 
L 1207.095101 1056.975749 
L 1216.815822 1076.991956 
L 1226.536543 1087.465854 
L 1236.257264 1068.999417 
L 1245.977984 1070.532588 
L 1255.698705 1096.601797 
L 1265.419426 1077.772818 
L 1275.140146 1085.092063 
L 1284.860867 1097.700713 
L 1294.581588 1104.835367 
L 1304.302309 1108.746977 
L 1314.023029 1108.591602 
L 1323.74375 1114.300653 
" style="fill:none;stroke:#d95f02;stroke-linecap:square;stroke-width:4;"/>
    <defs>
     <path d="M 0 3 
C 0.795609 3 1.55874 2.683901 2.12132 2.12132 
C 2.683901 1.55874 3 0.795609 3 0 
C 3 -0.795609 2.683901 -1.55874 2.12132 -2.12132 
C 1.55874 -2.683901 0.795609 -3 0 -3 
C -0.795609 -3 -1.55874 -2.683901 -2.12132 -2.12132 
C -2.683901 -1.55874 -3 -0.795609 -3 0 
C -3 0.795609 -2.683901 1.55874 -2.12132 2.12132 
C -1.55874 2.683901 -0.795609 3 0 3 
z
" id="m805f755252" style="stroke:#d95f02;"/>
    </defs>
    <g clip-path="url(#p0826659577)">
     <use style="fill:#d95f02;stroke:#d95f02;" x="244.74375" xlink:href="#m805f755252" y="177.265263"/>
     <use style="fill:#d95f02;stroke:#d95f02;" x="254.464471" xlink:href="#m805f755252" y="236.447368"/>
     <use style="fill:#d95f02;stroke:#d95f02;" x="264.185191" xlink:href="#m805f755252" y="87.618949"/>
     <use style="fill:#d95f02;stroke:#d95f02;" x="273.905912" xlink:href="#m805f755252" y="147.577931"/>
     <use style="fill:#d95f02;stroke:#d95f02;" x="283.626633" xlink:href="#m805f755252" y="200.564939"/>
     <use style="fill:#d95f02;stroke:#d95f02;" x="293.347354" xlink:href="#m805f755252" y="134.22494"/>
     <use style="fill:#d95f02;stroke:#d95f02;" x="303.068074" xlink:href="#m805f755252" y="243.904061"/>
     <use style="fill:#d95f02;stroke:#d95f02;" x="312.788795" xlink:href="#m805f755252" y="237.549604"/>
     <use style="fill:#d95f02;stroke:#d95f02;" x="322.509516" xlink:href="#m805f755252" y="157.498055"/>
     <use style="fill:#d95f02;stroke:#d95f02;" x="332.230236" xlink:href="#m805f755252" y="168.759454"/>
     <use style="fill:#d95f02;stroke:#d95f02;" x="341.950957" xlink:href="#m805f755252" y="220.425107"/>
     <use style="fill:#d95f02;stroke:#d95f02;" x="351.671678" xlink:href="#m805f755252" y="237.018406"/>
     <use style="fill:#d95f02;stroke:#d95f02;" x="361.392399" xlink:href="#m805f755252" y="211.786498"/>
     <use style="fill:#d95f02;stroke:#d95f02;" x="371.113119" xlink:href="#m805f755252" y="223.665415"/>
     <use style="fill:#d95f02;stroke:#d95f02;" x="380.83384" xlink:href="#m805f755252" y="249.408601"/>
     <use style="fill:#d95f02;stroke:#d95f02;" x="390.554561" xlink:href="#m805f755252" y="263.704469"/>
     <use style="fill:#d95f02;stroke:#d95f02;" x="400.275282" xlink:href="#m805f755252" y="288.664139"/>
     <use style="fill:#d95f02;stroke:#d95f02;" x="409.996002" xlink:href="#m805f755252" y="408.064185"/>
     <use style="fill:#d95f02;stroke:#d95f02;" x="419.716723" xlink:href="#m805f755252" y="372.420795"/>
     <use style="fill:#d95f02;stroke:#d95f02;" x="429.437444" xlink:href="#m805f755252" y="298.106185"/>
     <use style="fill:#d95f02;stroke:#d95f02;" x="439.158164" xlink:href="#m805f755252" y="313.14573"/>
     <use style="fill:#d95f02;stroke:#d95f02;" x="448.878885" xlink:href="#m805f755252" y="310.669019"/>
     <use style="fill:#d95f02;stroke:#d95f02;" x="458.599606" xlink:href="#m805f755252" y="395.81343"/>
     <use style="fill:#d95f02;stroke:#d95f02;" x="468.320327" xlink:href="#m805f755252" y="359.320122"/>
     <use style="fill:#d95f02;stroke:#d95f02;" x="478.041047" xlink:href="#m805f755252" y="335.768128"/>
     <use style="fill:#d95f02;stroke:#d95f02;" x="487.761768" xlink:href="#m805f755252" y="394.764314"/>
     <use style="fill:#d95f02;stroke:#d95f02;" x="497.482489" xlink:href="#m805f755252" y="384.120432"/>
     <use style="fill:#d95f02;stroke:#d95f02;" x="507.203209" xlink:href="#m805f755252" y="404.724277"/>
     <use style="fill:#d95f02;stroke:#d95f02;" x="516.92393" xlink:href="#m805f755252" y="480.273923"/>
     <use style="fill:#d95f02;stroke:#d95f02;" x="526.644651" xlink:href="#m805f755252" y="445.22149"/>
     <use style="fill:#d95f02;stroke:#d95f02;" x="536.365372" xlink:href="#m805f755252" y="517.05275"/>
     <use style="fill:#d95f02;stroke:#d95f02;" x="546.086092" xlink:href="#m805f755252" y="559.229876"/>
     <use style="fill:#d95f02;stroke:#d95f02;" x="555.806813" xlink:href="#m805f755252" y="533.57965"/>
     <use style="fill:#d95f02;stroke:#d95f02;" x="565.527534" xlink:href="#m805f755252" y="540.246185"/>
     <use style="fill:#d95f02;stroke:#d95f02;" x="575.248255" xlink:href="#m805f755252" y="605.862427"/>
     <use style="fill:#d95f02;stroke:#d95f02;" x="584.968975" xlink:href="#m805f755252" y="583.166989"/>
     <use style="fill:#d95f02;stroke:#d95f02;" x="594.689696" xlink:href="#m805f755252" y="613.37888"/>
     <use style="fill:#d95f02;stroke:#d95f02;" x="604.410417" xlink:href="#m805f755252" y="627.595068"/>
     <use style="fill:#d95f02;stroke:#d95f02;" x="614.131137" xlink:href="#m805f755252" y="640.80198"/>
     <use style="fill:#d95f02;stroke:#d95f02;" x="623.851858" xlink:href="#m805f755252" y="653.497614"/>
     <use style="fill:#d95f02;stroke:#d95f02;" x="633.572579" xlink:href="#m805f755252" y="697.872573"/>
     <use style="fill:#d95f02;stroke:#d95f02;" x="643.2933" xlink:href="#m805f755252" y="687.009572"/>
     <use style="fill:#d95f02;stroke:#d95f02;" x="653.01402" xlink:href="#m805f755252" y="699.605607"/>
     <use style="fill:#d95f02;stroke:#d95f02;" x="662.734741" xlink:href="#m805f755252" y="727.320866"/>
     <use style="fill:#d95f02;stroke:#d95f02;" x="672.455462" xlink:href="#m805f755252" y="731.84933"/>
     <use style="fill:#d95f02;stroke:#d95f02;" x="682.176182" xlink:href="#m805f755252" y="743.190408"/>
     <use style="fill:#d95f02;stroke:#d95f02;" x="691.896903" xlink:href="#m805f755252" y="767.857919"/>
     <use style="fill:#d95f02;stroke:#d95f02;" x="701.617624" xlink:href="#m805f755252" y="768.913675"/>
     <use style="fill:#d95f02;stroke:#d95f02;" x="711.338345" xlink:href="#m805f755252" y="772.034464"/>
     <use style="fill:#d95f02;stroke:#d95f02;" x="721.059065" xlink:href="#m805f755252" y="811.622"/>
     <use style="fill:#d95f02;stroke:#d95f02;" x="730.779786" xlink:href="#m805f755252" y="797.565171"/>
     <use style="fill:#d95f02;stroke:#d95f02;" x="740.500507" xlink:href="#m805f755252" y="835.021275"/>
     <use style="fill:#d95f02;stroke:#d95f02;" x="750.221227" xlink:href="#m805f755252" y="813.766712"/>
     <use style="fill:#d95f02;stroke:#d95f02;" x="759.941948" xlink:href="#m805f755252" y="849.031624"/>
     <use style="fill:#d95f02;stroke:#d95f02;" x="769.662669" xlink:href="#m805f755252" y="831.674727"/>
     <use style="fill:#d95f02;stroke:#d95f02;" x="779.38339" xlink:href="#m805f755252" y="841.481972"/>
     <use style="fill:#d95f02;stroke:#d95f02;" x="789.10411" xlink:href="#m805f755252" y="858.274471"/>
     <use style="fill:#d95f02;stroke:#d95f02;" x="798.824831" xlink:href="#m805f755252" y="857.397994"/>
     <use style="fill:#d95f02;stroke:#d95f02;" x="808.545552" xlink:href="#m805f755252" y="872.543779"/>
     <use style="fill:#d95f02;stroke:#d95f02;" x="818.266273" xlink:href="#m805f755252" y="872.344579"/>
     <use style="fill:#d95f02;stroke:#d95f02;" x="827.986993" xlink:href="#m805f755252" y="880.604709"/>
     <use style="fill:#d95f02;stroke:#d95f02;" x="837.707714" xlink:href="#m805f755252" y="926.083232"/>
     <use style="fill:#d95f02;stroke:#d95f02;" x="847.428435" xlink:href="#m805f755252" y="892.815625"/>
     <use style="fill:#d95f02;stroke:#d95f02;" x="857.149155" xlink:href="#m805f755252" y="908.406289"/>
     <use style="fill:#d95f02;stroke:#d95f02;" x="866.869876" xlink:href="#m805f755252" y="936.53389"/>
     <use style="fill:#d95f02;stroke:#d95f02;" x="876.590597" xlink:href="#m805f755252" y="926.172872"/>
     <use style="fill:#d95f02;stroke:#d95f02;" x="886.311318" xlink:href="#m805f755252" y="936.238411"/>
     <use style="fill:#d95f02;stroke:#d95f02;" x="896.032038" xlink:href="#m805f755252" y="948.73219"/>
     <use style="fill:#d95f02;stroke:#d95f02;" x="905.752759" xlink:href="#m805f755252" y="933.7783"/>
     <use style="fill:#d95f02;stroke:#d95f02;" x="915.47348" xlink:href="#m805f755252" y="939.703815"/>
     <use style="fill:#d95f02;stroke:#d95f02;" x="925.1942" xlink:href="#m805f755252" y="951.276629"/>
     <use style="fill:#d95f02;stroke:#d95f02;" x="934.914921" xlink:href="#m805f755252" y="954.101939"/>
     <use style="fill:#d95f02;stroke:#d95f02;" x="944.635642" xlink:href="#m805f755252" y="955.267918"/>
     <use style="fill:#d95f02;stroke:#d95f02;" x="954.356363" xlink:href="#m805f755252" y="968.50139"/>
     <use style="fill:#d95f02;stroke:#d95f02;" x="964.077083" xlink:href="#m805f755252" y="966.732501"/>
     <use style="fill:#d95f02;stroke:#d95f02;" x="973.797804" xlink:href="#m805f755252" y="972.094945"/>
     <use style="fill:#d95f02;stroke:#d95f02;" x="983.518525" xlink:href="#m805f755252" y="976.048387"/>
     <use style="fill:#d95f02;stroke:#d95f02;" x="993.239245" xlink:href="#m805f755252" y="1003.209208"/>
     <use style="fill:#d95f02;stroke:#d95f02;" x="1002.959966" xlink:href="#m805f755252" y="986.19427"/>
     <use style="fill:#d95f02;stroke:#d95f02;" x="1012.680687" xlink:href="#m805f755252" y="1001.059184"/>
     <use style="fill:#d95f02;stroke:#d95f02;" x="1022.401408" xlink:href="#m805f755252" y="1013.779386"/>
     <use style="fill:#d95f02;stroke:#d95f02;" x="1032.122128" xlink:href="#m805f755252" y="1000.650826"/>
     <use style="fill:#d95f02;stroke:#d95f02;" x="1041.842849" xlink:href="#m805f755252" y="1005.677951"/>
     <use style="fill:#d95f02;stroke:#d95f02;" x="1051.56357" xlink:href="#m805f755252" y="1028.445765"/>
     <use style="fill:#d95f02;stroke:#d95f02;" x="1061.284291" xlink:href="#m805f755252" y="1013.082188"/>
     <use style="fill:#d95f02;stroke:#d95f02;" x="1071.005011" xlink:href="#m805f755252" y="1023.960461"/>
     <use style="fill:#d95f02;stroke:#d95f02;" x="1080.725732" xlink:href="#m805f755252" y="1034.387879"/>
     <use style="fill:#d95f02;stroke:#d95f02;" x="1090.446453" xlink:href="#m805f755252" y="1025.731342"/>
     <use style="fill:#d95f02;stroke:#d95f02;" x="1100.167173" xlink:href="#m805f755252" y="1049.210297"/>
     <use style="fill:#d95f02;stroke:#d95f02;" x="1109.887894" xlink:href="#m805f755252" y="1057.603227"/>
     <use style="fill:#d95f02;stroke:#d95f02;" x="1119.608615" xlink:href="#m805f755252" y="1038.59032"/>
     <use style="fill:#d95f02;stroke:#d95f02;" x="1129.329336" xlink:href="#m805f755252" y="1049.374305"/>
     <use style="fill:#d95f02;stroke:#d95f02;" x="1139.050056" xlink:href="#m805f755252" y="1046.395611"/>
     <use style="fill:#d95f02;stroke:#d95f02;" x="1148.770777" xlink:href="#m805f755252" y="1050.022366"/>
     <use style="fill:#d95f02;stroke:#d95f02;" x="1158.491498" xlink:href="#m805f755252" y="1057.165652"/>
     <use style="fill:#d95f02;stroke:#d95f02;" x="1168.212218" xlink:href="#m805f755252" y="1056.68027"/>
     <use style="fill:#d95f02;stroke:#d95f02;" x="1177.932939" xlink:href="#m805f755252" y="1061.236622"/>
     <use style="fill:#d95f02;stroke:#d95f02;" x="1187.65366" xlink:href="#m805f755252" y="1073.146746"/>
     <use style="fill:#d95f02;stroke:#d95f02;" x="1197.374381" xlink:href="#m805f755252" y="1079.358444"/>
     <use style="fill:#d95f02;stroke:#d95f02;" x="1207.095101" xlink:href="#m805f755252" y="1056.975749"/>
     <use style="fill:#d95f02;stroke:#d95f02;" x="1216.815822" xlink:href="#m805f755252" y="1076.991956"/>
     <use style="fill:#d95f02;stroke:#d95f02;" x="1226.536543" xlink:href="#m805f755252" y="1087.465854"/>
     <use style="fill:#d95f02;stroke:#d95f02;" x="1236.257264" xlink:href="#m805f755252" y="1068.999417"/>
     <use style="fill:#d95f02;stroke:#d95f02;" x="1245.977984" xlink:href="#m805f755252" y="1070.532588"/>
     <use style="fill:#d95f02;stroke:#d95f02;" x="1255.698705" xlink:href="#m805f755252" y="1096.601797"/>
     <use style="fill:#d95f02;stroke:#d95f02;" x="1265.419426" xlink:href="#m805f755252" y="1077.772818"/>
     <use style="fill:#d95f02;stroke:#d95f02;" x="1275.140146" xlink:href="#m805f755252" y="1085.092063"/>
     <use style="fill:#d95f02;stroke:#d95f02;" x="1284.860867" xlink:href="#m805f755252" y="1097.700713"/>
     <use style="fill:#d95f02;stroke:#d95f02;" x="1294.581588" xlink:href="#m805f755252" y="1104.835367"/>
     <use style="fill:#d95f02;stroke:#d95f02;" x="1304.302309" xlink:href="#m805f755252" y="1108.746977"/>
     <use style="fill:#d95f02;stroke:#d95f02;" x="1314.023029" xlink:href="#m805f755252" y="1108.591602"/>
     <use style="fill:#d95f02;stroke:#d95f02;" x="1323.74375" xlink:href="#m805f755252" y="1114.300653"/>
    </g>
   </g>
   <g id="patch_8">
    <path d="M 190.79375 1297.715312 
L 190.79375 29.995312 
" style="fill:none;stroke:#000000;stroke-linecap:square;stroke-linejoin:miter;stroke-width:0.8;"/>
   </g>
   <g id="patch_9">
    <path d="M 190.79375 1297.715312 
L 1377.69375 1297.715312 
" style="fill:none;stroke:#000000;stroke-linecap:square;stroke-linejoin:miter;stroke-width:0.8;"/>
   </g>
  </g>
  <g id="legend_1">
   <g id="line2d_16">
    <path d="M 958.8 74.745937 
L 1078.8 74.745937 
" style="fill:none;stroke:#1b9e77;stroke-linecap:square;stroke-width:4;"/>
   </g>
   <g id="line2d_17">
    <g>
     <use style="fill:#1b9e77;stroke:#1b9e77;stroke-linejoin:miter;" x="1018.8" xlink:href="#m2b59ca91d8" y="74.745937"/>
    </g>
   </g>
   <g id="text_28">
    <!-- VoB-Tree -->
    <g transform="translate(1126.8 95.745937)scale(0.6 -0.6)">
     <defs>
      <path d="M 1831 0 
L 50 4666 
L 709 4666 
L 2188 738 
L 3669 4666 
L 4325 4666 
L 2547 0 
L 1831 0 
z
" id="DejaVuSans-56" transform="scale(0.015625)"/>
      <path d="M 1259 2228 
L 1259 519 
L 2272 519 
Q 2781 519 3026 730 
Q 3272 941 3272 1375 
Q 3272 1813 3026 2020 
Q 2781 2228 2272 2228 
L 1259 2228 
z
M 1259 4147 
L 1259 2741 
L 2194 2741 
Q 2656 2741 2882 2914 
Q 3109 3088 3109 3444 
Q 3109 3797 2882 3972 
Q 2656 4147 2194 4147 
L 1259 4147 
z
M 628 4666 
L 2241 4666 
Q 2963 4666 3353 4366 
Q 3744 4066 3744 3513 
Q 3744 3084 3544 2831 
Q 3344 2578 2956 2516 
Q 3422 2416 3680 2098 
Q 3938 1781 3938 1306 
Q 3938 681 3513 340 
Q 3088 0 2303 0 
L 628 0 
L 628 4666 
z
" id="DejaVuSans-42" transform="scale(0.015625)"/>
      <path d="M 313 2009 
L 1997 2009 
L 1997 1497 
L 313 1497 
L 313 2009 
z
" id="DejaVuSans-2d" transform="scale(0.015625)"/>
      <path d="M -19 4666 
L 3928 4666 
L 3928 4134 
L 2272 4134 
L 2272 0 
L 1638 0 
L 1638 4134 
L -19 4134 
L -19 4666 
z
" id="DejaVuSans-54" transform="scale(0.015625)"/>
     </defs>
     <use xlink:href="#DejaVuSans-56"/>
     <use x="60.658203" xlink:href="#DejaVuSans-6f"/>
     <use x="121.839844" xlink:href="#DejaVuSans-42"/>
     <use x="190.443359" xlink:href="#DejaVuSans-2d"/>
     <use x="217.402344" xlink:href="#DejaVuSans-54"/>
     <use x="263.736328" xlink:href="#DejaVuSans-72"/>
     <use x="302.599609" xlink:href="#DejaVuSans-65"/>
     <use x="364.123047" xlink:href="#DejaVuSans-65"/>
    </g>
   </g>
   <g id="line2d_18">
    <path d="M 958.8 162.814687 
L 1078.8 162.814687 
" style="fill:none;stroke:#d95f02;stroke-linecap:square;stroke-width:4;"/>
   </g>
   <g id="line2d_19">
    <g>
     <use style="fill:#d95f02;stroke:#d95f02;" x="1018.8" xlink:href="#m805f755252" y="162.814687"/>
    </g>
   </g>
   <g id="text_29">
    <!-- B-Tree -->
    <g transform="translate(1126.8 183.814687)scale(0.6 -0.6)">
     <use xlink:href="#DejaVuSans-42"/>
     <use x="68.603516" xlink:href="#DejaVuSans-2d"/>
     <use x="95.5625" xlink:href="#DejaVuSans-54"/>
     <use x="141.896484" xlink:href="#DejaVuSans-72"/>
     <use x="180.759766" xlink:href="#DejaVuSans-65"/>
     <use x="242.283203" xlink:href="#DejaVuSans-65"/>
    </g>
   </g>
  </g>
 </g>
 <defs>
  <clipPath id="p0826659577">
   <rect height="1267.72" width="1186.9" x="190.79375" y="29.995312"/>
  </clipPath>
 </defs>
</svg>
